<svg xmlns="http://www.w3.org/2000/svg" viewBox="0 0 192 192" width="192" height="192">
  <defs>
    <linearGradient id="bg" x1="0%" y1="0%" x2="100%" y2="100%">
      <stop offset="0%" stop-color="#5a2893"/>
      <stop offset="50%" stop-color="#9d4edd"/>
      <stop offset="100%" stop-color="#c77dff"/>
    </linearGradient>
    <radialGradient id="glow" cx="50%" cy="45%" r="50%">
      <stop offset="0%" stop-color="#ff9ebb" stop-opacity="0.4"/>
      <stop offset="100%" stop-color="#ff9ebb" stop-opacity="0"/>
    </radialGradient>
  </defs>
  <rect width="192" height="192" rx="40" fill="url(#bg)"/>
  <circle cx="96" cy="88" r="60" fill="url(#glow)"/>
  <!-- Heart -->
  <path d="M96 140 C96 140 40 105 40 72 C40 52 56 40 72 40 C82 40 90 46 96 54 C102 46 110 40 120 40 C136 40 152 52 152 72 C152 105 96 140 96 140Z" fill="#fff" opacity="0.95"/>
  <!-- Sparkle dots -->
  <circle cx="50" cy="45" r="2.5" fill="#fff" opacity="0.6"/>
  <circle cx="145" cy="50" r="2" fill="#fff" opacity="0.5"/>
  <circle cx="155" cy="140" r="2" fill="#fff" opacity="0.4"/>
  <circle cx="35" cy="135" r="1.8" fill="#fff" opacity="0.4"/>
</svg>